<svg width="60" height="59" viewBox="0 0 60 59" fill="none" xmlns="http://www.w3.org/2000/svg">
<path d="M12.6092 21.6209V17.8898V15.5183C12.6092 15.4682 12.5894 15.4238 12.5629 15.4238H9.51401C9.4885 15.4238 9.46582 15.4682 9.46582 15.5183V21.6209C9.46582 21.6474 9.47338 21.6691 9.47716 21.6842L9.48094 21.6871H9.48472C9.4885 21.7022 9.50172 21.7126 9.51401 21.7126H12.5629C12.5885 21.7126 12.6092 21.6729 12.6092 21.6209Z" fill="#FFAF37"/>
<path d="M19.6713 19.3076H2.26953C2.12592 19.3076 2.00781 19.3275 2.00781 19.3539V22.2876C2.00781 22.3131 2.12592 22.332 2.26953 22.332H19.6713C19.7487 22.332 19.8111 22.3282 19.8517 22.3207L19.8593 22.3169H19.865C19.9075 22.3112 19.9349 22.298 19.9349 22.2866V20.4197V19.353C19.9358 19.3284 19.8158 19.3076 19.6713 19.3076Z" fill="#FFAF37"/>
<path d="M21.7527 20.8174H0.325019C0.147392 20.8174 0 20.8429 0 20.876V24.4852C0 24.5192 0.147392 24.5428 0.325019 24.5428H21.7527C21.8471 24.5428 21.9227 24.5381 21.9737 24.5286L21.9813 24.5268C21.9851 24.5268 21.9851 24.523 21.9889 24.523C22.0399 24.5164 22.0767 24.505 22.0767 24.4861V22.1912V20.8769C22.0777 20.8429 21.9303 20.8174 21.7527 20.8174Z" fill="#FFAF37"/>
<path d="M20.7669 0H1.30162C1.14195 0 1.00684 0.116213 1.00684 0.248488V16.3879C1.00684 16.5249 1.14195 16.6393 1.30162 16.6393H20.7669C20.8405 16.6422 20.9126 16.6184 20.97 16.5722L20.9776 16.5646L20.9832 16.5533C21.0086 16.5337 21.029 16.5085 21.0427 16.4796C21.0565 16.4507 21.0633 16.419 21.0626 16.387V6.1234V0.247543C21.0626 0.116213 20.9294 0 20.7669 0Z" fill="#FFAF37"/>
<path d="M20.2454 0.916992H2.38353C2.23614 0.916992 2.11426 1.02187 2.11426 1.14564V15.951C2.11426 16.0767 2.23614 16.1815 2.38353 16.1815H20.2454C20.3248 16.1815 20.3871 16.1598 20.4315 16.123C20.4315 16.123 20.4315 16.1192 20.4353 16.1135C20.4391 16.1135 20.4391 16.1088 20.4429 16.1041C20.4663 16.0861 20.4851 16.0629 20.4979 16.0363C20.5107 16.0097 20.5171 15.9805 20.5166 15.951V6.53774V1.14564C20.5166 1.02187 20.3928 0.916992 20.2454 0.916992Z" fill="#FFAF37"/>
<path d="M18.9735 1.47461H2.96349C2.83027 1.47461 2.71973 1.56909 2.71973 1.67964V14.9544C2.71973 15.0668 2.83027 15.1613 2.96349 15.1613H18.9735C19.0336 15.1637 19.0926 15.1446 19.1398 15.1075C19.1398 15.1075 19.1398 15.1027 19.1436 15.099C19.1474 15.099 19.1474 15.0952 19.1511 15.0914C19.1715 15.0749 19.1879 15.054 19.199 15.0303C19.2102 15.0066 19.2158 14.9806 19.2154 14.9544V6.51429V1.67964C19.2154 1.56909 19.1048 1.47461 18.9735 1.47461Z" fill="#FFAF37"/>
<path d="M11.2752 10.3484C13.9509 12.3959 16.5653 13.7867 19.2873 14.6294V1.68159C19.2873 1.5701 19.1767 1.47656 19.0435 1.47656H4.35059C5.86136 5.10657 8.45867 8.19803 11.2752 10.3484Z" fill="#FFAF37"/>
<path d="M11.2934 12.5193C8.06404 10.2753 4.83086 7.16684 2.79004 3.3252V14.955C2.79004 15.0675 2.90058 15.1619 3.0338 15.1619H16.1026C14.4088 14.4572 12.7964 13.5712 11.2934 12.5193Z" fill="#FFAF37"/>
<path d="M50.5292 21.6209V17.8898V15.5183C50.5292 15.4682 50.5075 15.4238 50.481 15.4238H47.4321C47.4104 15.4238 47.3877 15.4682 47.3877 15.5183V21.6209C47.3877 21.6474 47.3915 21.6691 47.3981 21.6842L47.4 21.6871H47.4038C47.4104 21.7022 47.4227 21.7126 47.4321 21.7126H50.481C50.5075 21.7126 50.5292 21.6729 50.5292 21.6209Z" fill="#FFAF37"/>
<path d="M57.5873 19.3076H40.1855C40.0429 19.3076 39.9238 19.3275 39.9238 19.3539V22.2876C39.9238 22.3131 40.0429 22.332 40.1855 22.332H57.5873C57.6648 22.332 57.7271 22.3282 57.7687 22.3207L57.7753 22.3169H57.7829C57.8235 22.3112 57.8528 22.298 57.8528 22.2866V20.4197V19.353C57.8528 19.3284 57.7337 19.3076 57.5873 19.3076Z" fill="#FFAF37"/>
<path d="M59.6746 20.8174H38.247C38.0693 20.8174 37.9238 20.8429 37.9238 20.876V24.4852C37.9238 24.5192 38.0693 24.5428 38.247 24.5428H59.6746C59.771 24.5428 59.8447 24.5381 59.8966 24.5286C59.9004 24.5286 59.9004 24.5268 59.9032 24.5268C59.907 24.5268 59.9089 24.523 59.9089 24.523C59.9628 24.5164 59.9996 24.505 59.9996 24.4861V22.1912V20.8769C59.9996 20.8429 59.8532 20.8174 59.6746 20.8174Z" fill="#FFAF37"/>
<path d="M58.6926 0H39.2283C39.0658 0 38.9326 0.116213 38.9326 0.249433V16.3889C38.9326 16.5259 39.0668 16.6402 39.2283 16.6402H58.6945C58.7678 16.643 58.8396 16.6192 58.8967 16.5731L58.9052 16.5656L58.9118 16.5542C58.9366 16.5343 58.9565 16.5089 58.9699 16.4801C58.9833 16.4513 58.99 16.4197 58.9893 16.3879V6.12434V0.248488C58.9893 0.116213 58.857 0 58.6945 0" fill="#FFAF37"/>
<path d="M58.1653 0.916992H40.3035C40.157 0.916992 40.0342 1.02187 40.0342 1.14564V15.951C40.0342 16.0767 40.157 16.1815 40.3035 16.1815H58.1653C58.2317 16.1842 58.2969 16.1635 58.3496 16.123C58.3496 16.123 58.3496 16.1192 58.3533 16.1135C58.3571 16.1135 58.359 16.1088 58.3609 16.1041C58.3845 16.0862 58.4035 16.063 58.4164 16.0364C58.4294 16.0098 58.4359 15.9806 58.4355 15.951V6.53774V1.14564C58.4365 1.02187 58.3137 0.916992 58.1653 0.916992Z" fill="#FFAF37"/>
<path d="M56.8973 1.47461H40.8873C40.7541 1.47461 40.6436 1.56909 40.6436 1.67964V14.9544C40.6436 15.0668 40.7541 15.1613 40.8873 15.1613H56.8973C56.9574 15.1637 57.0164 15.1446 57.0636 15.1075L57.0674 15.099C57.0712 15.099 57.0731 15.0952 57.0759 15.0914C57.0961 15.0747 57.1124 15.0538 57.1237 15.0301C57.135 15.0065 57.1409 14.9806 57.1411 14.9544V6.51429V1.67964C57.1411 1.56909 57.0306 1.47461 56.8973 1.47461Z" fill="#FFAF37"/>
<path d="M49.1972 10.3484C51.8729 12.3959 54.4901 13.7867 57.2093 14.6294V1.68159C57.2093 1.5701 57.0997 1.47656 56.9655 1.47656H42.2754C43.7833 5.10657 46.3816 8.19803 49.1972 10.3484Z" fill="#FFAF37"/>
<path d="M49.2163 12.5193C45.985 10.2753 42.7528 7.16684 40.7129 3.3252V14.955C40.7129 15.0675 40.8253 15.1619 40.9567 15.1619H54.0264C52.3329 14.4574 50.7207 13.5713 49.2182 12.5193" fill="#FFAF37"/>
<path d="M30.8896 55.5965V51.8654V49.4948C30.8896 49.4428 30.8678 49.3984 30.8414 49.3984H27.7953C27.7688 49.3984 27.7471 49.4428 27.7471 49.4948V55.5965C27.7471 55.622 27.7546 55.6447 27.7584 55.6579L27.7622 55.6617H27.7631C27.7688 55.6768 27.782 55.6881 27.7953 55.6881H30.8414C30.8678 55.6881 30.8896 55.6475 30.8896 55.5965Z" fill="#FFAF37"/>
<path d="M37.9437 53.29H20.5419C20.3983 53.29 20.2783 53.308 20.2783 53.3344V56.2681C20.2783 56.2946 20.3983 56.3125 20.5419 56.3125H37.9437C38.0211 56.3125 38.0816 56.3087 38.1241 56.3021C38.1241 56.3021 38.1279 56.3021 38.1317 56.2984H38.1355C38.1799 56.2898 38.2073 56.2795 38.2073 56.2681V54.4011V53.3344C38.2073 53.308 38.0873 53.29 37.9437 53.29Z" fill="#FFAF37"/>
<path d="M40.031 54.792H18.6053C18.4277 54.792 18.2803 54.8166 18.2803 54.8506V58.4607C18.2803 58.4948 18.4277 58.5193 18.6053 58.5193H40.031C40.1274 58.5193 40.2011 58.5127 40.254 58.5042C40.2578 58.5042 40.2578 58.5004 40.2616 58.5004C40.2616 58.5004 40.2654 58.5004 40.2691 58.4966C40.322 58.49 40.3561 58.4777 40.3561 58.4598V56.1639V54.8496C40.3561 54.8166 40.2106 54.792 40.031 54.792Z" fill="#FFAF37"/>
<path d="M39.051 33.9785H19.5858C19.4233 33.9785 19.291 34.0928 19.291 34.227V50.3655C19.291 50.5025 19.4242 50.6168 19.5858 50.6168H39.0492C39.1226 50.6203 39.195 50.5976 39.2532 50.5526L39.258 50.5431C39.258 50.5431 39.2636 50.5365 39.2655 50.5318C39.2908 50.5122 39.3112 50.4869 39.3251 50.4581C39.3391 50.4292 39.3462 50.3976 39.3458 50.3655V40.1066V34.227C39.3458 34.0928 39.2117 33.9785 39.0492 33.9785" fill="#FFAF37"/>
<path d="M38.5208 34.8848H20.6599C20.5125 34.8848 20.3906 34.9906 20.3906 35.1134V49.9197C20.3906 50.0463 20.5125 50.1484 20.6599 50.1484H38.5218C38.6011 50.1484 38.6635 50.1266 38.7079 50.0917C38.7079 50.0917 38.7079 50.086 38.7117 50.0822C38.7155 50.0822 38.7155 50.0737 38.7202 50.07C38.7431 50.0521 38.7616 50.0291 38.7743 50.0029C38.7869 49.9767 38.7933 49.9479 38.7929 49.9188V40.5046V35.1125C38.792 34.9915 38.6673 34.8848 38.5208 34.8848Z" fill="#FFAF37"/>
<path d="M37.2529 35.4492H21.2447C21.1115 35.4492 21.001 35.5456 21.001 35.6552V48.9299C21.001 49.0414 21.1115 49.134 21.2447 49.134H37.2529C37.3128 49.1378 37.372 49.1193 37.4192 49.0821L37.4248 49.0717C37.4296 49.0717 37.4296 49.0698 37.4324 49.0632C37.4526 49.0471 37.4689 49.0267 37.4802 49.0035C37.4915 48.9803 37.4974 48.9548 37.4976 48.929V40.4861V35.6533C37.4976 35.5456 37.3833 35.4492 37.2529 35.4492Z" fill="#FFAF37"/>
<path d="M29.5555 44.3241C32.2312 46.3715 34.8455 47.7632 37.5676 48.6069V35.6591C37.5676 35.5495 37.457 35.4531 37.3238 35.4531H22.6309C24.1407 39.0822 26.7389 42.1746 29.5555 44.3241Z" fill="#FFAF37"/>
<path d="M29.5737 46.4978C26.3443 44.2558 23.1111 41.1473 21.0703 37.3057V48.9364C21.0703 49.0479 21.1809 49.1405 21.3141 49.1405H34.381C32.6869 48.4378 31.0748 47.5516 29.5737 46.4978Z" fill="#FFAF37"/>
<path d="M38.5393 8.54985C38.5393 9.41531 37.8344 10.1183 36.969 10.1183H23.2247C23.0187 10.1183 22.8147 10.0777 22.6245 9.99887C22.4342 9.92005 22.2613 9.80452 22.1156 9.65888C21.97 9.51324 21.8545 9.34034 21.7756 9.15005C21.6968 8.95977 21.6562 8.75582 21.6562 8.54985C21.6562 8.34388 21.6968 8.13994 21.7756 7.94965C21.8545 7.75936 21.97 7.58646 22.1156 7.44082C22.2613 7.29518 22.4342 7.17965 22.6245 7.10083C22.8147 7.02201 23.0187 6.98145 23.2247 6.98145H36.969C37.8344 6.98145 38.5393 7.6825 38.5393 8.54985Z" fill="#FFAF37"/>
<path d="M52.5042 27.2805C53.1939 27.8049 53.3224 28.7922 52.7952 29.481L44.4241 40.3814C44.3003 40.5493 44.1442 40.6908 43.9651 40.7976C43.7859 40.9045 43.5873 40.9746 43.3807 41.0037C43.1742 41.0329 42.9639 41.0206 42.7621 40.9676C42.5604 40.9146 42.3712 40.8219 42.2058 40.6949C42.0403 40.5679 41.9018 40.4092 41.7983 40.228C41.6949 40.0469 41.6286 39.8469 41.6033 39.6399C41.5781 39.4328 41.5944 39.2228 41.6512 39.0221C41.7081 38.8214 41.8044 38.634 41.9345 38.471L50.3047 27.5687C50.5582 27.239 50.9324 27.0234 51.3448 26.9694C51.7572 26.9153 52.1742 27.0272 52.5042 27.2805Z" fill="#FFAF37"/>
<path d="M5.82619 27.2806C5.49662 27.5345 5.2812 27.9088 5.22718 28.3213C5.17315 28.7338 5.28494 29.1509 5.53802 29.4811L13.9101 40.3815C14.1634 40.7114 14.5374 40.9272 14.9499 40.9813C15.3623 41.0354 15.7793 40.9235 16.1092 40.6702C16.4391 40.4169 16.6548 40.0428 16.7089 39.6304C16.7631 39.218 16.6511 38.801 16.3978 38.4711L8.02763 27.5679C7.77341 27.2384 7.39893 27.0231 6.98627 26.9693C6.57361 26.9154 6.15643 27.0274 5.82619 27.2806Z" fill="#FFAF37"/>
</svg>
