<svg width="50" height="45" viewBox="0 0 50 45" fill="none" xmlns="http://www.w3.org/2000/svg">
<path d="M23.3929 44.5192L21.7761 38.3626C22.3449 38.0876 22.8137 37.8709 23.4345 37.5626C26.0159 36.4625 28.5098 35.2041 30.8308 33.6207C33.7372 31.6372 36.4519 29.4225 38.8167 26.812C40.6709 24.7639 42.2168 22.5034 43.1002 19.8491C43.6878 18.0823 43.9753 16.2759 43.7169 14.4133C43.5021 12.8888 42.9342 11.4356 42.0585 10.1693C41.0196 8.64009 39.6028 7.40559 37.9458 6.5858C35.8477 5.52323 33.6122 5.13363 31.2829 5.20238C29.2203 5.26489 27.2306 5.71908 25.295 6.42537C21.7323 7.72753 18.4655 9.58805 15.3299 11.6923C14.4132 12.307 13.5735 13.0174 12.8464 13.855C12.4506 14.3092 12.1464 14.8134 12.0172 15.4155C11.8005 16.4301 12.3818 17.2031 13.4173 17.251C14.1423 17.2864 14.7882 17.0051 15.4216 16.7051C17.3925 15.7759 19.1718 14.5196 21.0115 13.3716C22.522 12.4299 24.0491 11.509 25.7097 10.8485C27.3472 10.1964 29.0369 9.83806 30.8079 10.1339C32.7351 10.4569 34.2872 11.3673 35.2289 13.1383C35.8894 14.3779 35.9415 15.6947 35.5956 17.0343C35.1998 18.5636 34.3143 19.8053 33.2684 20.945C31.828 22.5032 30.1622 23.8368 28.3265 24.9014C26.4014 26.0307 24.4929 27.1932 22.5178 28.2308C20.2073 29.4454 17.7467 30.3059 15.2403 31.033C13.136 31.6435 10.9942 31.9206 8.81077 31.7268C6.97733 31.5643 5.25431 31.0309 3.73339 29.9726C2.37443 29.0394 1.32876 27.7178 0.733221 26.1807C-0.21475 23.7639 -0.164747 21.2991 0.435287 18.8177C1.11241 16.0093 2.53541 13.5883 4.28967 11.3361C5.62308 9.62555 7.15651 8.11297 8.81077 6.72122C11.1428 4.74386 13.6506 2.98367 16.3029 1.46258C17.205 0.950054 18.1217 0.466693 18.9801 0L19.8572 1.80427C19.0655 2.23138 18.2801 2.63973 17.5092 3.07101C14.1902 4.90131 11.1345 7.17279 8.42533 9.82348C6.94732 11.2593 5.71116 12.9246 4.7647 14.755C3.77715 16.6885 3.24586 18.7344 3.47921 20.9179C3.73548 23.3076 4.85637 25.1452 7.05858 26.2473C8.37116 26.9057 9.77332 27.1016 11.2192 27.0703C13.211 27.0286 15.0903 26.4619 16.9446 25.7973C19.7114 24.8077 22.2845 23.4284 24.7888 21.9138C26.2597 21.0262 27.7264 20.122 28.9703 18.9219C29.6265 18.2865 30.2828 17.6406 30.6183 16.7593C31.2141 15.1884 30.3683 13.83 28.6848 13.6695C27.7681 13.5841 26.9389 13.8883 26.1305 14.2612C23.9929 15.2509 22.0699 16.6051 20.0781 17.8448C18.5572 18.7886 17.0175 19.7074 15.3424 20.3616C14.1819 20.8158 12.9839 21.0991 11.7255 20.9533C9.56498 20.7074 8.2149 19.0011 8.45033 16.8385C8.63367 15.1384 9.4608 13.7529 10.5796 12.5153C11.8151 11.1465 13.2569 10.0256 14.8049 9.03594C17.1821 7.5171 19.5968 6.06076 22.1782 4.90445C25.17 3.5627 28.241 2.50014 31.5329 2.21054C33.9164 2.00012 36.2728 2.13346 38.5979 2.73766C40.6383 3.25195 42.5594 4.15766 44.2545 5.40448C45.9301 6.6434 47.3216 8.22604 48.3359 10.0464C49.2652 11.7048 49.7944 13.4841 49.9506 15.378C50.1079 17.3514 49.8887 19.3367 49.3048 21.2283C48.7592 23.0863 47.9697 24.8637 46.9567 26.514C45.529 28.8113 43.8144 30.9172 41.8543 32.781C39.8459 34.6853 37.8187 36.5625 35.5331 38.1397C32.56 40.1898 29.464 42.0149 26.1159 43.3879C25.22 43.7546 24.3304 44.1296 23.3929 44.5192Z" fill="#001569"/>
</svg>
