<svg width="75" height="16" viewBox="0 0 75 16" fill="none" xmlns="http://www.w3.org/2000/svg">
<path d="M74.7 3.95625V0H60.15C57.1125 0 55.7438 1.875 55.5188 3.69375V3.75V0H51.2438V3.95625H55.5H74.7ZM55.5 5.38125L51.225 5.1375V9.69375C51.225 11.1187 50.5125 11.55 48.0375 11.55H44.625C42.5812 11.55 41.7188 10.9687 41.7188 9.69375V4.70625L37.3875 4.3875V10.05H37.2938C37.05 8.4 36.4313 6.4875 32.3063 6.20625L18.75 5.30625C18.75 7.3875 20.2312 8.625 22.5562 8.86875L32.0062 9.825C32.7562 9.88125 33.3 10.1063 33.3 10.725C33.3 11.4 32.7375 11.475 31.875 11.475H18.5813V5.30625L14.25 5.025V15.4875H31.8938C35.8312 15.4875 37.0875 13.4437 37.275 11.7375H37.3688C37.8563 14.4375 40.2188 15.4875 44.2125 15.4875H48.6187C53.2875 15.4875 55.5 14.0625 55.5 10.725V5.38125ZM69.2438 6.1875L55.6875 5.38125C55.6875 7.4625 57.0563 8.85 59.3813 9.0375L69.0375 9.7875C69.7875 9.84375 70.2375 10.0313 70.2375 10.65C70.2375 11.2313 69.7125 11.4562 68.625 11.4562H55.4625V15.4875H68.9062C73.1437 15.4875 75 14.0062 75 10.6312C75 7.59375 73.3313 6.45 69.2438 6.1875ZM37.3875 0H41.7188V3.95625H37.3875V0ZM11.8688 4.8375L7.1625 4.36875L0 15.4875H5.26875L11.8688 4.8375ZM36.6 0H23.3813C20.3062 0 18.9563 1.9125 18.6375 3.75V0H11.3062C10.275 0 9.7875 0.31875 9.3 1.03125L7.275 3.95625H36.6V0Z" fill="#001569"/>
</svg>
