<svg width="60" height="60" viewBox="0 0 60 60" fill="none" xmlns="http://www.w3.org/2000/svg">
<path d="M30.0019 60.0038H29.0062L35.256 43.2552H43.7521C45.256 43.2552 46.7504 42.0045 47.2492 40.7557L54.0071 22.5033C55.0028 19.505 53.2552 17.0054 50.2569 17.0054H38.498L23.2533 59.2537C9.74686 56.0023 0 44.2528 0 30.0038C0 16.2535 9.24808 4.7478 22.0026 0.997562L16.2498 17.0036L6.50291 43.2552H12.7527L20.7519 20.9976H25.4978L17.4986 43.2552H23.7484L31.2488 22.5014C32.2445 19.5031 30.75 17.0036 27.4986 17.0036H22.4977L28.7474 0H29.9981C46.5029 0 60 13.4971 60 30.0019C60 46.5067 46.5029 60.0038 29.9981 60.0038H30.0019ZM48.2543 20.7538H43.499L36.7504 39.0062H41.5057L48.2543 20.7538Z" fill="#001569"/>
</svg>
