<svg width="80" height="13" viewBox="0 0 80 13" fill="none" xmlns="http://www.w3.org/2000/svg">
<path d="M66.0567 0.379998L66.21 9.36H66.1333L63.5333 0.383333H59.2567V11.69H62.0833L61.93 2.40666H62.0067L64.7933 11.69H68.8833V0.383333L66.0567 0.379998ZM12.2233 0.379998L10.0867 11.8067H13.18L14.7467 1.41333H14.8233L16.3533 11.8067H19.4067L17.3067 0.383333L12.2233 0.379998ZM29.4933 0.379998L28.08 9.09333H28.0033L26.59 0.383333H21.9333L21.7033 11.8067H24.57L24.6467 1.53H24.6833L26.5933 11.8067H29.4967L31.4067 1.53H31.4833L31.56 11.8067H34.4267L34.16 0.383333L29.4933 0.379998ZM5.27333 8.56C5.36022 8.83172 5.37288 9.12174 5.31 9.4C5.23333 9.78 4.96667 10.1633 4.20333 10.1633C3.47667 10.1633 3.05667 9.74333 3.05667 9.13V8.02333H0V8.90333C0 11.4633 2.02333 12.2267 4.16667 12.2267C6.22667 12.2267 7.94667 11.5 8.21333 9.62667C8.36667 8.63333 8.25333 7.98667 8.21333 7.75667C7.68 5.35 3.32333 4.66 3.01667 3.32333C2.97852 3.12179 2.97852 2.91487 3.01667 2.71333C3.09333 2.33 3.36333 1.94667 4.05 1.94667C4.73667 1.94667 5.11667 2.37 5.11667 2.98V3.66666H7.98333V2.86667C7.98333 0.383332 5.73 0 4.12667 0C2.1 0 0.42 0.686667 0.113333 2.52333C0.0130154 3.02887 0.0266803 3.55041 0.153333 4.05C0.61 6.41666 4.7 7.10666 5.27333 8.55666V8.56ZM42.4467 8.55666C42.56 8.82333 42.52 9.17 42.4833 9.4C42.4067 9.78 42.14 10.1633 41.3767 10.1633C40.65 10.1633 40.23 9.74333 40.23 9.13V8.02333H37.1733V8.90333C37.1733 11.4233 39.16 12.1867 41.3 12.1867C43.3633 12.1867 45.0433 11.5 45.31 9.59C45.4633 8.59667 45.35 7.98667 45.31 7.71667C44.8533 5.35 40.5333 4.62333 40.23 3.32333C40.1915 3.12182 40.1915 2.91484 40.23 2.71333C40.3067 2.33 40.5733 1.94667 41.2633 1.94667C41.91 1.94667 42.33 2.37 42.33 2.98V3.66666H45.1567V2.86667C45.1567 0.383332 42.94 0 41.3367 0C39.3133 0 37.67 0.65 37.3633 2.52333C37.2867 3.02 37.2867 3.47666 37.4033 4.05C37.86 6.41666 41.87 7.06666 42.4467 8.55666ZM52.0733 10.0867C52.8733 10.0867 53.1067 9.55333 53.18 9.24666C53.22 9.13 53.22 8.94 53.22 8.82667V0.379998H56.12V8.59333C56.12 8.82333 56.12 9.24333 56.0867 9.36C55.8933 11.4967 54.2133 12.1833 52.11 12.1833C50.01 12.1833 48.33 11.4967 48.1367 9.35666C48.1367 9.24333 48.1 8.82333 48.1 8.59333V0.379998H51V8.82333C51 8.97666 51 9.12667 51.04 9.24333C51.04 9.54667 51.2733 10.0833 52.0733 10.0833V10.0867ZM75.9133 9.97C76.7533 9.97 77.02 9.43667 77.0967 9.12667C77.1333 9.01333 77.1333 8.82333 77.1333 8.70667V7.06333H75.95V5.38333H80V8.44C80 8.67 80 8.82333 79.9633 9.20667C79.77 11.3067 77.9733 12.03 75.95 12.03C73.9267 12.03 72.13 11.3067 71.94 9.20333C71.9 8.82333 71.9 8.67 71.9 8.44V3.62666C71.9 3.43666 71.94 3.05333 71.94 2.86C72.2067 0.723333 73.9267 0.0366656 75.95 0.0366656C77.9733 0.0366656 79.7333 0.723331 79.96 2.86333C80 3.20666 80 3.62666 80 3.62666V4.01H77.1333V3.36C77.1333 3.36 77.1333 3.09333 77.0967 2.94C77.0567 2.67333 76.83 2.1 75.95 2.1C75.11 2.1 74.8833 2.63333 74.8033 2.94C74.7667 3.09 74.7667 3.28333 74.7667 3.47333V8.70667C74.7667 8.86 74.7667 9.01333 74.8033 9.12667C74.8033 9.43333 75.11 9.97 75.9133 9.97Z" fill="#001569"/>
</svg>
