<svg width="70" height="47" viewBox="0 0 70 47" fill="none" xmlns="http://www.w3.org/2000/svg">
<path d="M20.621 19.5821V30.8847H17.0204V16.6771H24.4491C27.6056 16.6771 28.6752 18.9105 28.6752 20.9273V30.8847H25.0856V20.9492C25.0856 20.0939 24.6525 19.5821 23.5938 19.5821H20.621ZM45.0943 19.4114C43.8518 19.4114 42.9069 20.0371 42.5087 20.9033C42.282 21.3841 42.1654 21.9095 42.1675 22.4411H47.704C47.6361 20.9033 46.9296 19.4114 45.0943 19.4114ZM42.1653 24.891C42.1653 26.7263 43.305 28.0935 45.3546 28.0935C46.9383 28.0935 47.7236 27.6494 48.6468 26.7263L50.8692 28.8569C49.4561 30.2591 47.9533 31.1122 45.3218 31.1122C41.8809 31.1122 38.5888 29.2331 38.5888 23.7645C38.5888 19.0811 41.4609 16.4387 45.2431 16.4387C49.0821 16.4387 51.2936 19.5383 51.2936 23.5939V24.8823H42.1675L42.1653 24.891ZM35.546 30.8606C32.617 30.8606 31.3767 28.8219 31.3767 26.8051V12.8031H34.9664V16.6771H37.6657V19.5821H34.9664V26.5776C34.9664 27.4088 35.3535 27.866 36.2088 27.866H37.6679V30.8628L35.546 30.8606ZM13.8202 14.7171H10.1978V11.2653H13.8202V14.7171ZM13.8311 31.0312C11.1187 30.7687 10.1978 29.1281 10.1978 27.225V16.6749H13.8202V31.0422L13.8311 31.0312ZM57.0116 30.725C54.2991 30.4625 53.3892 28.8219 53.3892 26.9319V10.7885H57.0116V30.7381V30.725ZM69.6901 13.1225C66.4089 -2.90722 35.2945 -3.9222 15.2552 8.27945V9.63568C35.2726 -0.662886 63.6877 -0.595074 66.2733 14.1484C67.1286 19.0352 64.3812 24.1167 59.4725 27.0457V30.8737C65.3852 28.7081 71.4467 21.6908 69.6923 13.1225H69.6901ZM33.2448 41.1482C19.4135 42.4235 4.98941 40.4067 2.97257 29.6072C1.99259 24.2742 4.43161 18.624 7.63186 15.1153V13.2472C1.84384 18.3286 -1.29954 24.7663 0.511678 32.3656C2.82382 42.1173 15.1983 47.6428 34.0761 45.8097C41.5506 45.0813 51.3373 42.6773 58.1272 38.9389V33.6409C51.9629 37.3202 41.7431 40.3629 33.2448 41.1482ZM61.2028 11.8472C61.2028 11.6766 61.089 11.6197 60.8615 11.6197H60.634V12.1206H60.8615C61.089 12.1206 61.2028 12.0528 61.2028 11.8822V11.8472ZM61.5571 13.0875H61.2837C61.2719 13.0878 61.2602 13.0846 61.2501 13.0784C61.24 13.0722 61.2319 13.0632 61.2268 13.0525L60.8615 12.4269C60.8457 12.4132 60.8256 12.4054 60.8047 12.405H60.645V13.0197C60.645 13.0547 60.61 13.0875 60.5772 13.0875H60.3387C60.3037 13.0875 60.2709 13.0525 60.2709 13.0197V11.4578C60.2709 11.3791 60.3169 11.3331 60.3847 11.32C60.5334 11.3091 60.68 11.3091 60.8287 11.3091C61.2728 11.3091 61.5462 11.4338 61.5462 11.856V11.8778C61.5462 12.1403 61.4084 12.2759 61.2159 12.3459L61.5921 12.9847C61.5921 12.9956 61.6031 13.0197 61.6031 13.0306C61.614 13.0525 61.5921 13.0875 61.5571 13.0875ZM60.9184 11.0138C60.7613 11.0138 60.6057 11.0447 60.4605 11.1049C60.3153 11.165 60.1834 11.2531 60.0723 11.3642C59.9612 11.4753 59.8731 11.6073 59.8129 11.7524C59.7528 11.8976 59.7219 12.0532 59.7219 12.2103C59.7328 12.8709 60.2687 13.4069 60.9293 13.4069C61.2433 13.4051 61.5438 13.2797 61.7658 13.0577C61.9878 12.8357 62.1132 12.5352 62.1149 12.2213C62.1155 11.9027 61.99 11.5969 61.7658 11.3707C61.5416 11.1444 61.2369 11.0161 60.9184 11.0138ZM60.9184 13.6584C60.7292 13.6584 60.5419 13.6212 60.3672 13.5488C60.1924 13.4764 60.0336 13.3703 59.8999 13.2365C59.7661 13.1028 59.66 12.944 59.5876 12.7692C59.5152 12.5944 59.478 12.4071 59.478 12.218C59.478 12.0288 59.5152 11.8415 59.5876 11.6667C59.66 11.492 59.7661 11.3332 59.8999 11.1994C60.0336 11.0657 60.1924 10.9596 60.3672 10.8872C60.5419 10.8148 60.7292 10.7775 60.9184 10.7775C61.7037 10.7775 62.3643 11.4272 62.3643 12.2234C62.3643 13.0197 61.7037 13.6584 60.9184 13.6584Z" fill="#001569"/>
</svg>
