<svg width="70" height="24" viewBox="0 0 70 24" fill="none" xmlns="http://www.w3.org/2000/svg">
<path d="M61.3783 12.5154C61.3783 13.9737 60.3779 15.0442 59.0012 15.0442C57.6479 15.0442 56.5892 13.9358 56.5892 12.5154C56.5892 11.0279 57.5896 9.98375 58.9662 9.98375C60.3196 9.98375 61.3783 11.095 61.3783 12.5154ZM19.6554 9.83208C19.2905 9.81957 18.9279 9.89428 18.5977 10.05C18.2675 10.2057 17.9791 10.438 17.7567 10.7275C17.3109 11.3502 17.1305 12.1244 17.255 12.88L21.5687 11.0892C21.4089 10.7148 21.1421 10.396 20.8016 10.1729C20.4612 9.94977 20.0624 9.83221 19.6554 9.835V9.83208ZM39.9642 9.98375C38.5875 9.98375 37.5842 11.0279 37.5842 12.5154C37.5842 13.9329 38.6458 15.0442 39.9992 15.0442C41.3758 15.0442 42.3762 13.9708 42.3762 12.5154C42.3762 11.095 41.3175 9.98375 39.9642 9.98375ZM70 0V23.3508H0V0H70ZM14.6125 14.7379H9.00667V5.33167H6.50417V17.0071H14.6125V14.7408V14.7379ZM17.9287 14.4637L24.2375 11.8475C24.1248 10.9255 23.7503 10.055 23.1583 9.33917C22.33 8.37667 21.105 7.86625 19.6117 7.86625C16.8962 7.86625 14.8487 9.86708 14.8487 12.5125C14.8487 15.225 16.9021 17.1587 19.8829 17.1587C21.5512 17.1587 23.2604 16.3654 24.0596 15.4408L22.4992 14.2421C21.4579 15.0121 20.8658 15.1929 19.9179 15.1929C19.0662 15.1929 18.4012 14.9304 17.9287 14.4637ZM34.1746 11.4333C34.1746 9.36541 32.6958 7.86625 30.5229 7.86625C29.9571 7.86857 29.3992 7.99949 28.8914 8.2491C28.3836 8.49871 27.9391 8.86048 27.5917 9.30708V8.01792H25.1242V17.0042H27.5917V11.8912C27.5917 10.9696 28.3062 9.9925 29.6275 9.9925C30.6483 9.9925 31.7042 10.7012 31.7042 11.8912V17.0042H34.1746V11.4333ZM44.8117 12.5125C44.8117 9.87583 42.6971 7.86625 39.9992 7.86625C37.2779 7.86625 35.1487 9.90791 35.1487 12.5125C35.1487 15.1462 37.2662 17.1558 39.9642 17.1558C42.6825 17.1558 44.8117 15.1142 44.8117 12.5125ZM50.8375 17.0042L54.5358 8.01792H51.7154L49.4842 14.14L47.2529 8.015H44.4354L48.1337 17.0012H50.8375V17.0042ZM63.8137 12.5125C63.8137 9.87583 61.6992 7.86625 59.0012 7.86625C56.2829 7.86625 54.1537 9.90791 54.1537 12.5125C54.1537 15.1462 56.2683 17.1558 58.9662 17.1558C61.6846 17.1558 63.8137 15.1142 63.8137 12.5125Z" fill="#001569"/>
</svg>
