<svg width="32" height="26" viewBox="0 0 32 26" fill="none" xmlns="http://www.w3.org/2000/svg">
<g filter="url(#filter0_d_4301_282)">
<path d="M26.5 0H5.5C5.10218 0 4.72064 0.158035 4.43934 0.43934C4.15804 0.720644 4 1.10218 4 1.5V16.5C4 16.8978 4.15804 17.2794 4.43934 17.5607C4.72064 17.842 5.10218 18 5.5 18H26.5C26.8978 18 27.2794 17.842 27.5607 17.5607C27.842 17.2794 28 16.8978 28 16.5V1.5C28 1.10218 27.842 0.720644 27.5607 0.43934C27.2794 0.158035 26.8978 0 26.5 0ZM25.345 16.5H6.745L11.995 11.07L10.915 10.0275L5.5 15.63V2.64L14.8225 11.9175C15.1035 12.1969 15.4837 12.3537 15.88 12.3537C16.2763 12.3537 16.6565 12.1969 16.9375 11.9175L26.5 2.4075V15.5325L20.98 10.0125L19.9225 11.07L25.345 16.5ZM6.4825 1.5H25.285L15.88 10.8525L6.4825 1.5Z" fill="#FFAF37"/>
</g>
<defs>
<filter id="filter0_d_4301_282" x="0" y="0" width="32" height="26" filterUnits="userSpaceOnUse" color-interpolation-filters="sRGB">
<feFlood flood-opacity="0" result="BackgroundImageFix"/>
<feColorMatrix in="SourceAlpha" type="matrix" values="0 0 0 0 0 0 0 0 0 0 0 0 0 0 0 0 0 0 127 0" result="hardAlpha"/>
<feOffset dy="4"/>
<feGaussianBlur stdDeviation="2"/>
<feComposite in2="hardAlpha" operator="out"/>
<feColorMatrix type="matrix" values="0 0 0 0 0 0 0 0 0 0 0 0 0 0 0 0 0 0 0.25 0"/>
<feBlend mode="normal" in2="BackgroundImageFix" result="effect1_dropShadow_4301_282"/>
<feBlend mode="normal" in="SourceGraphic" in2="effect1_dropShadow_4301_282" result="shape"/>
</filter>
</defs>
</svg>
