<svg width="70" height="73" viewBox="0 0 70 73" fill="none" xmlns="http://www.w3.org/2000/svg">
<path d="M34.7981 19.9541C34.7963 19.8142 34.7945 19.6737 34.7928 19.5324C34.8589 19.5316 34.9246 19.5308 34.99 19.5299C35.0639 19.5288 35.1373 19.5278 35.2102 19.5267C35.7142 19.5195 36.1955 19.5126 36.6731 19.5202C37.3754 19.5315 38.0094 19.5746 38.5798 19.677C39.0646 26.4062 39.0334 32.0304 38.9963 38.7059C38.9859 40.5834 38.975 42.544 38.975 44.6359V46.1359H40.475H43.4291H43.465C43.7016 46.1359 43.9083 46.1359 44.0922 46.1379C43.9198 46.4846 43.6667 46.9475 43.3049 47.5603C42.6027 48.7499 41.5943 50.3405 40.2278 52.4961L40.1479 52.6222C40.1479 52.6222 40.1479 52.6223 40.1479 52.6223C38.8964 54.5962 37.8247 56.1112 37.0055 57.1C36.8061 57.3407 36.6305 57.5394 36.4787 57.7001C36.2262 57.3997 35.9231 57.0161 35.5793 56.5615C34.6644 55.3518 33.5278 53.7279 32.4157 52.0566C31.3038 50.3856 30.231 48.6891 29.4411 47.3365C29.1889 46.9046 28.9703 46.5158 28.7906 46.1794C29.1062 46.1533 29.4516 46.1473 29.8554 46.1403C29.9627 46.1384 30.0742 46.1365 30.1903 46.1341C30.8054 46.1214 31.6005 46.0953 32.317 45.8905C33.0858 45.6708 33.9429 45.1912 34.3901 44.1732L34.4044 44.1406L34.4172 44.1074C34.7499 43.2405 34.6493 42.1956 34.4632 41.2938C34.2625 40.3209 33.8931 39.2077 33.4081 38.0365C32.436 35.6892 30.9369 32.9594 29.1488 30.4016C28.2644 29.1365 27.605 28.1549 27.1324 27.3688C26.6516 26.5689 26.4158 26.0544 26.3174 25.7119C26.2713 25.5517 26.2653 25.4616 26.2658 25.4212C26.2662 25.3885 26.2706 25.3791 26.2731 25.3731C26.2863 25.3411 26.3545 25.2106 26.6902 24.9279C26.8013 24.9978 26.9632 25.1141 27.1911 25.3042C27.5369 25.5927 27.9693 25.9952 28.535 26.5476C29.3257 27.3197 30.1296 27.9893 30.806 28.4437C31.134 28.664 31.4946 28.8765 31.8453 29.0108C32.0151 29.0758 32.2676 29.1563 32.5602 29.1705C32.8431 29.1843 33.3941 29.1419 33.8483 28.6877L34.1628 28.3732L34.255 27.9381C34.8638 25.0664 34.8323 22.6191 34.7981 19.9541ZM44.4095 45.3454C44.4096 45.3453 44.4093 45.3488 44.4079 45.3564C44.4086 45.3493 44.4093 45.3455 44.4095 45.3454ZM28.2836 45.1003C28.2838 45.1004 28.2852 45.1052 28.2873 45.1143C28.2844 45.1046 28.2834 45.1001 28.2836 45.1003Z" fill="#FFE76B" stroke="#FFAF37" stroke-width="3"/>
</svg>
